Sprint_07200001_forces_filt100Hz.mot
version=1
nRows=43
nColumns=19
inDegrees=yes
endheader
time	R_ground_force_vx	R_ground_force_vy	R_ground_force_vz	R_ground_force_px	R_ground_force_py	R_ground_force_pz	R_ground_torque_x	R_ground_torque_y	R_ground_torque_z	L_ground_force_vx	L_ground_force_vy	L_ground_force_vz	L_ground_force_px	L_ground_force_py	L_ground_force_pz	L_ground_torque_x	L_ground_torque_y	L_ground_torque_z	
0.000000	  0.000000	  0.000000	  0.000000	  0.093398	  0.000000	 -0.257605	  0.000000	  0.000000	  0.000000	  0.000000	  0.000000	  0.000000	  1.443246	  0.000000	 -0.365491	  0.000000	  0.000000	  0.000000
0.000500	  0.000000	  0.000000	  0.000000	  0.092937	 -0.000000	 -0.257649	  0.000000	  0.000000	  0.000000	  0.000000	  0.000000	  0.000000	  1.443605	 -0.000000	 -0.365394	  0.000000	  0.000000	  0.000000
0.001000	  0.000000	  0.000000	  0.000000	  0.092477	 -0.000000	 -0.257692	  0.000000	  0.000000	  0.000000	  0.000000	  0.000000	  0.000000	  1.443963	 -0.000000	 -0.365297	  0.000000	  0.000000	  0.000000
0.001500	  0.000000	  0.000000	  0.000000	  0.092016	 -0.000000	 -0.257736	  0.000000	  0.000000	  0.000000	  0.000000	  0.000000	  0.000000	  1.444321	 -0.000000	 -0.365199	  0.000000	  0.000000	  0.000000
0.002000	  0.000000	  0.000000	  0.000000	  0.091556	 -0.000000	 -0.257779	  0.000000	  0.000000	  0.000000	  0.000000	  0.000000	  0.000000	  1.444680	 -0.000000	 -0.365102	  0.000000	  0.000000	  0.000000
0.002500	  0.000000	  0.000000	  0.000000	  0.091095	  0.000000	 -0.257823	  0.000000	  0.000000	  0.000000	  0.000000	  0.000000	  0.000000	  1.445038	  0.000000	 -0.365005	  0.000000	  0.000000	  0.000000
0.003000	  0.000000	  0.000000	  0.000000	  0.090635	  0.000000	 -0.257867	  0.000000	  0.000000	  0.000000	  0.000000	  0.000000	  0.000000	  1.445396	  0.000000	 -0.364908	  0.000000	  0.000000	  0.000000
0.003500	  0.000000	  0.000000	  0.000000	  0.090174	  0.000000	 -0.257910	  0.000000	  0.000000	  0.000000	  0.000000	  0.000000	  0.000000	  1.445755	  0.000000	 -0.364810	  0.000000	  0.000000	  0.000000
0.004000	  0.000000	  0.000000	  0.000000	  0.089713	  0.000000	 -0.257954	  0.000000	  0.000000	  0.000000	  0.000000	  0.000000	  0.000000	  1.446113	  0.000000	 -0.364713	  0.000000	  0.000000	  0.000000
0.004500	  0.000000	  0.000000	  0.000000	  0.089253	  0.000000	 -0.257997	  0.000000	  0.000000	  0.000000	  0.000000	  0.000000	  0.000000	  1.446471	  0.000000	 -0.364616	  0.000000	  0.000000	  0.000000
0.005000	  0.000000	  0.000000	  0.000000	  0.088792	  0.000000	 -0.258041	  0.000000	  0.000000	  0.000000	  0.000000	  0.000000	  0.000000	  1.446830	  0.000000	 -0.364519	  0.000000	  0.000000	  0.000000
0.005500	  0.000000	  0.000000	  0.000000	  0.088721	  0.000000	 -0.258126	  0.000000	  0.000000	  0.000000	  0.000000	  0.000000	  0.000000	  1.446818	  0.000000	 -0.364535	  0.000000	  0.000000	  0.000000
0.006000	  0.000000	  0.000000	  0.000000	  0.088649	  0.000000	 -0.258210	  0.000000	  0.000000	  0.000000	  0.000000	  0.000000	  0.000000	  1.446807	  0.000000	 -0.364551	  0.000000	  0.000000	  0.000000
0.006500	  0.000000	  0.000000	  0.000000	  0.088578	  0.000000	 -0.258295	  0.000000	  0.000000	  0.000000	  0.000000	  0.000000	  0.000000	  1.446795	  0.000000	 -0.364568	  0.000000	  0.000000	  0.000000
0.007000	  0.000000	  0.000000	  0.000000	  0.088506	  0.000000	 -0.258380	  0.000000	  0.000000	  0.000000	  0.000000	  0.000000	  0.000000	  1.446784	  0.000000	 -0.364584	  0.000000	  0.000000	  0.000000
0.007500	  0.000000	  0.000000	  0.000000	  0.088435	  0.000000	 -0.258464	  0.000000	  0.000000	  0.000000	  0.000000	  0.000000	  0.000000	  1.446773	  0.000000	 -0.364600	  0.000000	  0.000000	  0.000000
0.008000	  0.000000	  0.000000	  0.000000	  0.088363	  0.000000	 -0.258549	  0.000000	  0.000000	  0.000000	  0.000000	  0.000000	  0.000000	  1.446761	  0.000000	 -0.364616	  0.000000	  0.000000	  0.000000
0.008500	  0.000000	  0.000000	  0.000000	  0.088292	  0.000000	 -0.258633	  0.000000	  0.000000	  0.000000	  0.000000	  0.000000	  0.000000	  1.446750	  0.000000	 -0.364633	  0.000000	  0.000000	  0.000000
0.009000	  0.000000	  0.000000	  0.000000	  0.088220	  0.000000	 -0.258718	  0.000000	  0.000000	  0.000000	  0.000000	  0.000000	  0.000000	  1.446739	  0.000000	 -0.364649	  0.000000	  0.000000	  0.000000
0.009500	  0.000000	  0.000000	  0.000000	  0.088148	  0.000000	 -0.258803	  0.000000	  0.000000	  0.000000	  0.000000	  0.000000	  0.000000	  1.446727	  0.000000	 -0.364665	  0.000000	  0.000000	  0.000000
0.010000	  0.000000	  0.000000	  0.000000	  0.088077	  0.000000	 -0.258887	  0.000000	  0.000000	  0.000000	  0.000000	  0.000000	  0.000000	  1.446716	  0.000000	 -0.364681	  0.000000	  0.000000	  0.000000
0.010500	  0.000000	  0.000000	  0.000000	  0.088377	  0.000000	 -0.259133	  0.000000	  0.000000	  0.000000	  0.000000	  0.000000	  0.000000	  1.446419	  0.000000	 -0.364810	  0.000000	  0.000000	  0.000000
0.011000	  0.000000	  0.000000	  0.000000	  0.088677	  0.000000	 -0.259378	  0.000000	  0.000000	  0.000000	  0.000000	  0.000000	  0.000000	  1.446122	  0.000000	 -0.364938	  0.000000	  0.000000	  0.000000
0.011500	  0.000000	  0.000000	  0.000000	  0.088976	  0.000000	 -0.259624	  0.000000	  0.000000	  0.000000	  0.000000	  0.000000	  0.000000	  1.445825	  0.000000	 -0.365066	  0.000000	  0.000000	  0.000000
0.012000	  0.000000	  0.000000	  0.000000	  0.089276	  0.000000	 -0.259870	  0.000000	  0.000000	  0.000000	  0.000000	  0.000000	  0.000000	  1.445528	  0.000000	 -0.365194	  0.000000	  0.000000	  0.000000
0.012500	  0.000000	  0.000000	  0.000000	  0.089576	  0.000000	 -0.260115	  0.000000	  0.000000	  0.000000	  0.000000	  0.000000	  0.000000	  1.445231	  0.000000	 -0.365322	  0.000000	  0.000000	  0.000000
0.013000	  0.000000	  0.000000	  0.000000	  0.089876	  0.000000	 -0.260361	  0.000000	  0.000000	  0.000000	  0.000000	  0.000000	  0.000000	  1.444935	  0.000000	 -0.365450	  0.000000	  0.000000	  0.000000
0.013500	  0.000000	  0.000000	  0.000000	  0.090176	  0.000000	 -0.260607	  0.000000	  0.000000	  0.000000	  0.000000	  0.000000	  0.000000	  1.444638	  0.000000	 -0.365579	  0.000000	  0.000000	  0.000000
0.014000	  0.000000	  0.000000	  0.000000	  0.090475	  0.000000	 -0.260852	  0.000000	  0.000000	  0.000000	  0.000000	  0.000000	  0.000000	  1.444341	  0.000000	 -0.365707	  0.000000	  0.000000	  0.000000
0.014500	  0.000000	  0.000000	  0.000000	  0.090775	  0.000000	 -0.261098	  0.000000	  0.000000	  0.000000	  0.000000	  0.000000	  0.000000	  1.444044	  0.000000	 -0.365835	  0.000000	  0.000000	  0.000000
0.015000	  0.000000	  0.000000	  0.000000	  0.091075	  0.000000	 -0.261343	  0.000000	  0.000000	  0.000000	  0.000000	  0.000000	  0.000000	  1.443747	  0.000000	 -0.365963	  0.000000	  0.000000	  0.000000
0.015500	  0.000000	  0.000000	  0.000000	  0.091753	  0.000000	 -0.261323	  0.000000	  0.000000	  0.000000	  0.000000	  0.000000	  0.000000	  1.443236	  0.000000	 -0.366220	  0.000000	  0.000000	  0.000000
0.016000	  0.000000	  0.000000	  0.000000	  0.092431	  0.000000	 -0.261303	  0.000000	  0.000000	  0.000000	  0.000000	  0.000000	  0.000000	  1.442725	  0.000000	 -0.366478	  0.000000	  0.000000	  0.000000
0.016500	  0.000000	  0.000000	  0.000000	  0.093109	  0.000000	 -0.261282	  0.000000	  0.000000	  0.000000	  0.000000	  0.000000	  0.000000	  1.442214	  0.000000	 -0.366735	  0.000000	  0.000000	  0.000000
0.017000	  0.000000	  0.000000	  0.000000	  0.093787	  0.000000	 -0.261262	  0.000000	  0.000000	  0.000000	  0.000000	  0.000000	  0.000000	  1.441703	  0.000000	 -0.366992	  0.000000	  0.000000	  0.000000
0.017500	  0.000000	  0.000000	  0.000000	  0.094465	  0.000000	 -0.261242	  0.000000	  0.000000	  0.000000	  0.000000	  0.000000	  0.000000	  1.441192	  0.000000	 -0.367250	  0.000000	  0.000000	  0.000000
0.018000	  0.000000	  0.000000	  0.000000	  0.095143	  0.000000	 -0.261221	  0.000000	  0.000000	  0.000000	  0.000000	  0.000000	  0.000000	  1.440681	  0.000000	 -0.367507	  0.000000	  0.000000	  0.000000
0.018500	  0.000000	  0.000000	  0.000000	  0.095821	  0.000000	 -0.261201	  0.000000	  0.000000	  0.000000	  0.000000	  0.000000	  0.000000	  1.440170	  0.000000	 -0.367764	  0.000000	  0.000000	  0.000000
0.019000	  0.000000	  0.000000	  0.000000	  0.096499	  0.000000	 -0.261181	  0.000000	  0.000000	  0.000000	  0.000000	  0.000000	  0.000000	  1.439659	  0.000000	 -0.368021	  0.000000	  0.000000	  0.000000
0.019500	  0.000000	  0.000000	  0.000000	  0.097177	  0.000000	 -0.261161	  0.000000	  0.000000	  0.000000	  0.000000	  0.000000	  0.000000	  1.439148	  0.000000	 -0.368279	  0.000000	  0.000000	  0.000000
0.020000	  0.000000	  0.000000	  0.000000	  0.097855	  0.000000	 -0.261140	  0.000000	  0.000000	  0.000000	  0.000000	  0.000000	  0.000000	  1.438637	  0.000000	 -0.368536	  0.000000	  0.000000	  0.000000
0.020500	  0.000000	  0.000000	  0.000000	  0.098820	  0.000000	 -0.261264	  0.000000	  0.000000	  0.000000	  0.000000	  0.000000	  0.000000	  1.437721	  0.000000	 -0.368881	  0.000000	  0.000000	  0.000000
0.021000	  0.000000	  0.000000	  0.000000	  0.099785	  0.000000	 -0.261387	  0.000000	  0.000000	  0.000000	  0.000000	  0.000000	  0.000000	  1.436805	  0.000000	 -0.369226	  0.000000	  0.000000	  0.000000
